<?xml version="1.0" encoding="UTF-8" standalone="no"?>
<!-- Created with Inkscape (http://www.inkscape.org/) -->

<svg
   width="1024"
   height="1024"
   viewBox="0 0 1024 1024"
   version="1.1"
   id="svg1"
   xml:space="preserve"
   inkscape:version="1.4.2 (ebf0e94, 2025-05-08)"
   sodipodi:docname="Heimdall.svg"
   inkscape:export-filename="Heimdall.32.png"
   inkscape:export-xdpi="3"
   inkscape:export-ydpi="3"
   xmlns:inkscape="http://www.inkscape.org/namespaces/inkscape"
   xmlns:sodipodi="http://sodipodi.sourceforge.net/DTD/sodipodi-0.dtd"
   xmlns:xlink="http://www.w3.org/1999/xlink"
   xmlns="http://www.w3.org/2000/svg"
   xmlns:svg="http://www.w3.org/2000/svg"
   xmlns:rdf="http://www.w3.org/1999/02/22-rdf-syntax-ns#"
   xmlns:cc="http://creativecommons.org/ns#"
   xmlns:dc="http://purl.org/dc/elements/1.1/"><title
     id="title4">Icon for the Heimdall component of the Vanopticon</title><sodipodi:namedview
     id="namedview1"
     pagecolor="#505050"
     bordercolor="#eeeeee"
     borderopacity="1"
     inkscape:showpageshadow="0"
     inkscape:pageopacity="0"
     inkscape:pagecheckerboard="0"
     inkscape:deskcolor="#505050"
     inkscape:document-units="px"
     showgrid="true"
     showguides="true"
     inkscape:zoom="0.78446573"
     inkscape:cx="393.26128"
     inkscape:cy="489.50513"
     inkscape:window-width="1920"
     inkscape:window-height="1016"
     inkscape:window-x="0"
     inkscape:window-y="0"
     inkscape:window-maximized="1"
     inkscape:current-layer="layer3"><inkscape:grid
       id="grid4"
       units="px"
       originx="0"
       originy="0"
       spacingx="4.2333332"
       spacingy="4.2333332"
       empcolor="#0099e5"
       empopacity="0.30196078"
       color="#0099e5"
       opacity="0.14901961"
       empspacing="2"
       enabled="true"
       visible="true" /><sodipodi:guide
       position="0,1024"
       orientation="0,1024"
       id="guide9"
       inkscape:locked="false" /><sodipodi:guide
       position="1024,1024"
       orientation="1024,0"
       id="guide10"
       inkscape:locked="false" /><sodipodi:guide
       position="1024,0"
       orientation="0,-1024"
       id="guide11"
       inkscape:locked="false" /><sodipodi:guide
       position="0,0"
       orientation="-1024,0"
       id="guide12"
       inkscape:locked="false" /><sodipodi:guide
       position="512.23331,1268.0147"
       orientation="1,0"
       id="guide13"
       inkscape:locked="false" /><sodipodi:guide
       position="491.06664,465.20003"
       orientation="0,-1"
       id="guide14"
       inkscape:locked="false" /></sodipodi:namedview><defs
     id="defs1"><linearGradient
       id="linearGradient68623"
       inkscape:collect="always"><stop
         style="stop-color:#c0c0c0;stop-opacity:1;"
         offset="0.19247407"
         id="stop68624" /><stop
         style="stop-color:#c0c0c0;stop-opacity:0;"
         offset="1"
         id="stop68625" /></linearGradient><linearGradient
       id="linearGradient68619"
       inkscape:collect="always"><stop
         style="stop-color:#000000;stop-opacity:0;"
         offset="0.00187609"
         id="stop68619" /><stop
         style="stop-color:#000000;stop-opacity:0.75;"
         offset="0.30021754"
         id="stop68621" /><stop
         style="stop-color:#808084;stop-opacity:1;"
         offset="0.5"
         id="stop68622" /><stop
         style="stop-color:#000000;stop-opacity:0.75;"
         offset="0.70154983"
         id="stop68623" /><stop
         style="stop-color:#000000;stop-opacity:0;"
         offset="1"
         id="stop68620" /></linearGradient><pattern
       inkscape:collect="always"
       xlink:href="#packed-circles"
       preserveAspectRatio="xMidYMid"
       id="pattern68619"
       patternTransform="scale(4)"
       x="0"
       y="0" /><pattern
       inkscape:collect="always"
       xlink:href="#packed-circles"
       preserveAspectRatio="xMidYMid"
       id="pattern68618"
       patternTransform="scale(4)"
       x="0"
       y="0" /><pattern
       inkscape:collect="always"
       patternUnits="userSpaceOnUse"
       width="1"
       height="1.73205080756"
       patternTransform="translate(0,0) scale(10,10)"
       preserveAspectRatio="xMidYMid"
       style="fill:#99805c"
       id="packed-circles"
       inkscape:stockid="Packed circles"
       inkscape:label="Packed circles"
       inkscape:isstock="true"><circle
         style="stroke:none"
         cx="0"
         cy="0.5"
         r="0.5"
         id="circle219" /><circle
         style="stroke:none"
         cx="1"
         cy="0.5"
         r="0.5"
         id="circle221" /><circle
         style="stroke:none"
         cx="0.5"
         cy="1.36602540378"
         r="0.5"
         id="circle223" /><circle
         style="stroke:none"
         cx="0.5"
         cy="-0.366025403784"
         r="0.5"
         id="circle225" /></pattern><clipPath
       clipPathUnits="userSpaceOnUse"
       id="clipPath5"><path
         id="path5"
         style="stroke-width:0.1;stroke-linecap:square;paint-order:markers fill stroke;stop-color:#000000"
         d="m 438.25066,553.76374 859.87054,0 v 201.39554 l -859.87054,0 z"
         sodipodi:nodetypes="ccccc" /></clipPath><linearGradient
       id="linearGradient68603"
       inkscape:collect="always"><stop
         style="stop-color:#d0b891;stop-opacity:1;"
         offset="0"
         id="stop68603" /><stop
         style="stop-color:#bfa171;stop-opacity:1;"
         offset="0.30000001"
         id="stop68605" /><stop
         style="stop-color:#b59771;stop-opacity:1;"
         offset="0.69999999"
         id="stop68606" /><stop
         style="stop-color:#d0b891;stop-opacity:1;"
         offset="1"
         id="stop68604" /></linearGradient><color-profile
       name="sRGB"
       xlink:href="file:///usr/share/color/icc/colord/sRGB.icc"
       id="color-profile1" /><linearGradient
       inkscape:collect="always"
       xlink:href="#linearGradient68603"
       id="linearGradient68604"
       x1="402.16665"
       y1="730.24996"
       x2="503.76665"
       y2="730.24996"
       gradientUnits="userSpaceOnUse" /><linearGradient
       inkscape:collect="always"
       xlink:href="#linearGradient68603"
       id="linearGradient68606"
       gradientUnits="userSpaceOnUse"
       x1="402.16665"
       y1="730.24996"
       x2="503.76665"
       y2="730.24996"
       gradientTransform="matrix(-1,0,0,1,1024.4666,-2.2e-6)" /><linearGradient
       inkscape:collect="always"
       xlink:href="#linearGradient68619"
       id="linearGradient68620"
       x1="499.53331"
       y1="935.56661"
       x2="524.93331"
       y2="935.56661"
       gradientUnits="userSpaceOnUse" /><linearGradient
       inkscape:collect="always"
       xlink:href="#linearGradient68623"
       id="linearGradient68626"
       gradientUnits="userSpaceOnUse"
       x1="427.56665"
       y1="922.86664"
       x2="446.15631"
       y2="917.40106"
       gradientTransform="matrix(-1,0,0,1,1024.4666,-9.5166019e-7)" /><linearGradient
       inkscape:collect="always"
       xlink:href="#linearGradient68623"
       id="linearGradient68626-2"
       gradientUnits="userSpaceOnUse"
       x1="427.56665"
       y1="922.86664"
       x2="446.15631"
       y2="917.40106"
       gradientTransform="translate(4.352417e-5)" /></defs><g
     inkscape:label="Background"
     inkscape:groupmode="layer"
     id="layer1" /><g
     inkscape:groupmode="layer"
     id="layer2"
     inkscape:label="Helmet"
     sodipodi:insensitive="true"
     style="display:inline"><path
       style="fill:#b35900;fill-opacity:1;stroke:#000000;stroke-width:3.77953;stroke-miterlimit:86.3;stroke-opacity:1"
       d="m 457.19998,965.19995 c -38.4524,-44.90405 -70.92546,-87.81965 -97.36667,-148.16666 0,0 12.7,-4.23333 -4.23333,-59.26666 -16.93333,-55.03333 -76.19999,-38.1 -84.66666,-12.7 -16.93333,-11.28889 -28.22222,-19.75556 -33.86667,-42.33333 16.93334,-8.46667 28.22223,-19.75555 33.86667,-42.33333 -33.86666,-42.33333 -67.73333,-95.95555 -101.6,-160.86666 2.82223,-5.65781 16.93334,-8.48004 42.33334,-8.46667 L 169.33332,448.73331 C 222.75613,162.54348 330.19998,114.29999 406.39998,76.199996 c 12.7,8.466666 16.93333,14.111116 16.93333,42.333334 -133.2345,96.16514 -152.39999,253.99998 -8.46667,338.66665 34.60488,-9.85005 61.15089,-25.6181 97.36667,-25.4 v 292.09998 l -21.16667,-4.23333 c -1.41111,-9.87778 -22.57777,-28.22222 -63.5,-55.03333 -21.16666,-4.23333 -33.86666,-10e-6 -38.09999,12.7 v 25.4 c 42.33333,50.79999 29.68287,169.91083 67.73333,262.46665 z"
       id="path14"
       sodipodi:nodetypes="cczcccccccccccccccc"
       inkscape:label="Outline" /><path
       style="fill:none;fill-opacity:0.502688;stroke:#000000;stroke-width:3.77953;stroke-miterlimit:86.3;stroke-opacity:1"
       d="M 427.56664,664.6333 C 186.46109,443.0528 161.55277,222.19926 406.39998,88.899995"
       id="path15"
       sodipodi:nodetypes="cc" /><path
       style="fill:none;fill-opacity:0.502688;stroke:#000000;stroke-width:3.77953;stroke-miterlimit:86.3;stroke-opacity:1"
       d="m 406.39998,76.199996 c 0,19.755556 5.64444,33.866664 16.93333,42.333334"
       id="path16"
       sodipodi:nodetypes="cc" /><path
       style="fill:none;fill-opacity:0.502688;stroke:#000000;stroke-width:3.77953;stroke-miterlimit:86.3;stroke-opacity:1"
       d="M 512.23331,660.39997 C 312.70259,508.49374 158.74125,251.98465 410.63331,105.83333"
       id="path17"
       sodipodi:nodetypes="cc" /><path
       style="fill:none;fill-opacity:0.502688;stroke:#000000;stroke-width:3.77953;stroke-miterlimit:86.3;stroke-opacity:1"
       d="M 211.66666,491.06664 389.46665,677.3333"
       id="path18" /><path
       style="fill:none;fill-opacity:0.502688;stroke:#000000;stroke-width:3.77953;stroke-miterlimit:86.3;stroke-opacity:1"
       d="m 237.06665,702.7333 c 16.93334,8.46666 28.22223,22.57777 33.86667,42.33333"
       id="path19"
       sodipodi:nodetypes="cc" /><path
       style="fill:none;fill-opacity:0.502688;stroke:#000000;stroke-width:3.77953;stroke-miterlimit:86.3;stroke-opacity:1"
       d="m 389.46665,681.56663 c -42.07287,-12.76546 -87.76824,-21.29551 -139.7,29.63333"
       id="path20"
       sodipodi:nodetypes="cc" /><path
       style="fill:none;fill-opacity:0.502688;stroke:#000000;stroke-width:3.77953;stroke-miterlimit:86.3;stroke-opacity:1"
       d="M 414.86664,761.99996 C 382.70903,710.52041 348.84132,662.72762 262.46665,728.1333"
       id="path22"
       sodipodi:nodetypes="cc" /><path
       style="fill:none;fill-opacity:0.502688;stroke:#000000;stroke-width:3.77953;stroke-linecap:round;stroke-miterlimit:86.3;stroke-opacity:1"
       d="m 414.86664,457.19998 c -12.69999,33.86666 8.46667,97.36666 -38.09999,71.96666"
       id="path23"
       sodipodi:nodetypes="cc" /><path
       style="fill:none;fill-opacity:0.502688;stroke:#000000;stroke-width:3.78;stroke-linecap:square;stroke-miterlimit:86.3;stroke-dasharray:none;stroke-opacity:1"
       d="m 444.49998,448.73331 c -12.69999,45.15555 -12.7,98.77777 -8.46667,143.93333"
       id="path24"
       sodipodi:nodetypes="cc" /><path
       style="fill:none;fill-opacity:0.502688;stroke:#000000;stroke-width:3.77953;stroke-miterlimit:86.3;stroke-opacity:1"
       d="m 169.33332,499.53331 c 9.62636,10.99836 40.38345,13.2616 67.73333,16.93333"
       id="path25"
       sodipodi:nodetypes="cc" /><path
       style="fill:#b35900;fill-opacity:1;stroke:#000000;stroke-width:3.77953;stroke-miterlimit:86.3;stroke-opacity:1"
       d="m 567.26666,965.19998 c 38.4524,-44.9041 70.92546,-87.8197 97.36667,-148.1667 0,0 -12.7,-4.2333 4.23333,-59.2666 16.93333,-55.0334 76.19999,-38.1 84.66666,-12.7001 16.93333,-11.2888 28.22222,-19.7555 33.86667,-42.3333 -16.93334,-8.4667 -28.22223,-19.7555 -33.86667,-42.33331 33.86666,-42.33333 67.73333,-95.95555 101.59998,-160.86666 -2.8222,-5.65781 -16.9333,-8.48004 -42.33332,-8.46667 L 855.1333,448.73331 C 801.71051,162.54348 694.26666,114.29999 618.06666,76.199998 c -12.7,8.46666 -16.93333,14.11111 -16.93333,42.333332 133.2345,96.16514 152.39999,253.99998 8.46667,338.66665 -34.60488,-9.85005 -61.15089,-25.6181 -97.36669,-25.4 v 292.1 L 533.4,719.66668 c 1.41111,-9.8778 22.57777,-28.2223 63.5,-55.03338 21.16666,-4.23333 33.86666,-10e-6 38.09999,12.7 v 25.39998 c -42.33333,50.8 -29.68287,169.9109 -67.73333,262.4667 z"
       id="path14-2"
       sodipodi:nodetypes="cczcccccccccccccccc"
       inkscape:label="Outline" /><path
       style="fill:none;fill-opacity:0.502688;stroke:#000000;stroke-width:3.77953;stroke-miterlimit:86.3;stroke-opacity:1"
       d="M 596.9,664.6333 C 838.0055,443.0528 862.9139,222.19926 618.06666,88.899988"
       id="path15-9"
       sodipodi:nodetypes="cc" /><path
       style="fill:none;fill-opacity:0.502688;stroke:#000000;stroke-width:3.77953;stroke-miterlimit:86.3;stroke-opacity:1"
       d="m 618.06666,76.199998 c 0,19.75555 -5.64444,33.866662 -16.93333,42.333332"
       id="path16-1"
       sodipodi:nodetypes="cc" /><path
       style="fill:none;fill-opacity:0.502688;stroke:#000000;stroke-width:3.77953;stroke-miterlimit:86.3;stroke-opacity:1"
       d="M 512.23331,660.39997 C 711.76405,508.49374 865.7254,251.98465 613.83333,105.83333"
       id="path17-2"
       sodipodi:nodetypes="cc" /><path
       style="fill:none;fill-opacity:0.502688;stroke:#000000;stroke-width:3.77953;stroke-miterlimit:86.3;stroke-opacity:1"
       d="M 812.79998,491.06664 634.99999,677.3333"
       id="path18-7" /><path
       style="fill:none;fill-opacity:0.502688;stroke:#000000;stroke-width:3.77953;stroke-miterlimit:86.3;stroke-opacity:1"
       d="m 787.39999,702.73328 c -16.93334,8.4667 -28.22223,22.5778 -33.86667,42.3334"
       id="path19-0"
       sodipodi:nodetypes="cc" /><path
       style="fill:none;fill-opacity:0.502688;stroke:#000000;stroke-width:3.77953;stroke-miterlimit:86.3;stroke-opacity:1"
       d="m 634.99999,681.56668 c 42.07287,-12.76551 87.76824,-21.29556 139.7,29.6333"
       id="path20-9"
       sodipodi:nodetypes="cc" /><path
       style="fill:none;fill-opacity:0.502688;stroke:#000000;stroke-width:3.77953;stroke-miterlimit:86.3;stroke-opacity:1"
       d="m 609.6,761.99998 c 32.15761,-51.4796 66.02532,-99.27236 152.39999,-33.8667"
       id="path22-3"
       sodipodi:nodetypes="cc" /><path
       style="fill:none;fill-opacity:0.502688;stroke:#000000;stroke-width:3.77953;stroke-linecap:round;stroke-miterlimit:86.3;stroke-opacity:1"
       d="m 609.6,457.19998 c 12.69999,33.86666 -8.46667,97.36666 38.09999,71.96666"
       id="path23-6"
       sodipodi:nodetypes="cc" /><path
       style="fill:none;fill-opacity:0.502688;stroke:#000000;stroke-width:3.78;stroke-linecap:square;stroke-miterlimit:86.3;stroke-dasharray:none;stroke-opacity:1"
       d="m 579.96666,448.73331 c 12.69999,45.15555 12.7,98.77777 8.46667,143.93333"
       id="path24-0"
       sodipodi:nodetypes="cc" /><path
       style="fill:none;fill-opacity:0.502688;stroke:#000000;stroke-width:3.77953;stroke-miterlimit:86.3;stroke-opacity:1"
       d="m 855.1333,499.53331 c -9.6263,10.99836 -40.38343,13.2616 -67.73331,16.93333"
       id="path25-6"
       sodipodi:nodetypes="cc" /></g><g
     inkscape:groupmode="layer"
     id="layer3"
     inkscape:label="Sword"><path
       style="fill:#808084;fill-opacity:1;stroke:#000000;stroke-width:4;stroke-linecap:round;stroke-miterlimit:86.3;stroke-dasharray:none;stroke-opacity:1"
       d="m 448.73331,999.06661 -33.86667,-118.53332 25.4,-110.06666 c 71.96667,0 71.96667,59.26666 71.96667,124.88332 v 103.71666 z"
       id="path68545"
       sodipodi:nodetypes="cccccc" /><path
       style="fill:#808084;fill-opacity:1;stroke:#000000;stroke-width:4;stroke-linecap:round;stroke-miterlimit:86.3;stroke-dasharray:none;stroke-opacity:1"
       d="M 575.7333,999.06661 609.59997,880.53329 584.19998,770.46663 c -71.96667,0 -71.96667,59.26666 -71.96667,124.88332 v 103.71666 z"
       id="path68545-8"
       sodipodi:nodetypes="cccccc" /><path
       style="opacity:1;fill:url(#linearGradient68620);fill-opacity:1;stroke:none;stroke-width:4;stroke-linecap:round;stroke-linejoin:round;stroke-miterlimit:86.3;stroke-dasharray:none;stroke-opacity:1"
       d="m 499.53331,999.06661 h 25.4 V 872.06662 h -25.4 z"
       id="path68619" /><path
       style="fill:url(#linearGradient68604);fill-opacity:1;stroke:#000000;stroke-width:4;stroke-linecap:round;stroke-miterlimit:86.3;stroke-dasharray:none;stroke-opacity:1"
       d="m 427.56665,781.04996 -25.4,-127 c 45.04691,8.75963 61.51008,-3.94795 71.96666,-21.16666 l 29.63334,194.73332 c -38.1,-12.7 -12.7,-101.59999 -76.2,-46.56666 z"
       id="path68548"
       sodipodi:nodetypes="ccccc" /><path
       style="mix-blend-mode:normal;fill:url(#pattern68618);fill-opacity:1;stroke:#000000;stroke-width:4;stroke-linecap:round;stroke-miterlimit:86.3;stroke-dasharray:none;stroke-opacity:1"
       d="m 431.79998,810.68329 4.23334,-33.86667 c 4.23333,-12.7 9.87777,-16.93333 21.16666,-16.93333 21.16667,0 25.4,21.16667 29.63333,50.8 4.23334,8.46666 21.16666,12.7 25.4,16.93333 v 67.73333 c -29.40606,-44.10026 -56.32232,-68.89372 -80.43333,-84.66666 z"
       id="path68546"
       sodipodi:nodetypes="ccccccc" /><path
       style="fill:#d0b891;fill-opacity:1;stroke:#000000;stroke-width:4;stroke-linecap:round;stroke-miterlimit:86.3;stroke-dasharray:none;stroke-opacity:1"
       d="m 402.16665,654.04996 c -21.16666,-12.7 -29.63333,-29.63333 -38.1,-29.63333 -21.16666,4.23333 -139.69999,63.5 -169.33332,88.9 0,4.23333 4.23333,8.46666 12.7,12.7 67.09705,-11.46299 139.69999,-42.33334 165.09999,-8.46667 25.4,33.86666 -19.28755,66.05875 -50.8,93.13333 -6.10357,25.21379 11.47265,90.48929 59.26667,186.26665 4.23332,2.11667 21.16666,2.11667 25.39999,0 -39.66144,-125.2097 -6.39152,-167.30003 21.16667,-215.89998 z"
       id="path68549"
       sodipodi:nodetypes="cccczccccc" /><path
       style="fill:url(#linearGradient68606);fill-opacity:1;stroke:#000000;stroke-width:4;stroke-linecap:round;stroke-miterlimit:86.3;stroke-dasharray:none;stroke-opacity:1"
       d="m 596.89997,781.04996 25.4,-127 c -45.04691,8.75963 -61.51008,-3.94795 -71.96666,-21.16666 l -29.63334,194.7333 c 38.1,-12.7 12.7,-101.59997 76.2,-46.56664 z"
       id="path68548-9"
       sodipodi:nodetypes="ccccc" /><path
       style="mix-blend-mode:normal;fill:url(#pattern68619);fill-opacity:1;stroke:#000000;stroke-width:4;stroke-linecap:round;stroke-miterlimit:86.3;stroke-dasharray:none;stroke-opacity:1"
       d="m 592.66664,810.6833 -4.23334,-33.86668 c -4.23333,-12.7 -9.87777,-16.93333 -21.16666,-16.93333 -21.16667,0 -25.4,21.16667 -29.63333,50.80001 -4.23334,8.4667 -21.16666,12.7 -25.4,16.9333 V 895.35 c 26.87275,-37.54848 53.70803,-69.42683 80.43333,-84.6667 z"
       id="path68546-2"
       sodipodi:nodetypes="ccccccc" /><path
       style="fill:#d0b891;fill-opacity:1;stroke:#000000;stroke-width:4;stroke-linecap:round;stroke-miterlimit:86.3;stroke-dasharray:none;stroke-opacity:1"
       d="m 622.29997,654.04996 c 21.16666,-12.7 29.63333,-29.63333 38.1,-29.63333 21.16666,4.23333 139.69999,63.5 169.33332,88.9 0,4.23333 -4.23333,8.46666 -12.7,12.7 -67.09705,-11.46299 -139.69999,-42.33334 -165.09999,-8.46667 -25.4,33.86666 19.28755,66.05875 50.8,93.13334 6.10357,25.2138 -11.47265,90.4893 -59.26667,186.2666 -4.23332,2.11673 -21.16666,2.11673 -25.39999,0 39.66144,-125.2097 6.39152,-167.3 -21.16667,-215.89994 z"
       id="path68549-8"
       sodipodi:nodetypes="cccczccccc" /><path
       style="fill:#d0b891;fill-opacity:1;stroke:#000000;stroke-width:4;stroke-linecap:round;stroke-miterlimit:86.3;stroke-dasharray:none;stroke-opacity:1"
       d="m 512.23331,827.6166 25.4,-16.9333 16.93333,-218.01666 h -42.33333 z"
       id="path68547-2"
       sodipodi:nodetypes="ccccc" /><path
       style="fill:#d0b891;fill-opacity:1;stroke:#000000;stroke-width:4;stroke-linecap:round;stroke-miterlimit:86.3;stroke-dasharray:none;stroke-opacity:1"
       d="m 512.23331,827.61662 -25.4,-16.93333 -16.93333,-218.01665 h 42.33333 z"
       id="path68547"
       sodipodi:nodetypes="ccccc" /><path
       style="opacity:1;fill:#fd9f5a;fill-opacity:1;stroke:#000000;stroke-width:4;stroke-linecap:round;stroke-linejoin:round;stroke-miterlimit:86.3;stroke-dasharray:none;stroke-opacity:1"
       d="m 469.89998,592.66664 c -4.23333,-55.03333 -4.23333,-146.05 -12.7,-179.91667 8.46667,-33.86666 16.93333,-135.46665 16.93333,-194.73332 0,0 25.4,-8.46667 38.1,-8.46666 l 0,383.11665 z"
       id="path68550"
       sodipodi:nodetypes="cccccc" /><path
       style="fill:#fd9f5a;fill-opacity:1;stroke:#000000;stroke-width:4;stroke-linecap:round;stroke-linejoin:round;stroke-miterlimit:86.3;stroke-dasharray:none;stroke-opacity:1"
       d="m 554.56664,592.66664 c 4.23333,-55.03333 4.23333,-146.05 12.7,-179.91667 -8.46667,-33.86666 -16.93333,-135.46665 -16.93333,-194.73332 0,0 -25.4,-8.46667 -38.1,-8.46666 v 383.11665 z"
       id="path68550-7"
       sodipodi:nodetypes="cccccc" /><path
       style="fill:#e5d59f;fill-opacity:1;stroke:#000000;stroke-width:4;stroke-linecap:round;stroke-linejoin:round;stroke-miterlimit:86.3;stroke-dasharray:none;stroke-opacity:1"
       d="m 474.13331,218.01665 -42.33333,-101.59999 25.4,-84.666662 25.4,33.866665 29.63333,-33.866665 V 209.54999 Z"
       id="path68551"
       sodipodi:nodetypes="ccccccc" /><path
       style="fill:#e5d59f;fill-opacity:1;stroke:#000000;stroke-width:4;stroke-linecap:round;stroke-linejoin:round;stroke-miterlimit:86.3;stroke-dasharray:none;stroke-opacity:1"
       d="m 550.33331,218.01665 42.33333,-101.59999 -25.4,-84.666662 -25.4,33.86666 -29.63333,-33.86666 V 209.54999 Z"
       id="path68551-9"
       sodipodi:nodetypes="ccccccc" /><path
       style="fill:url(#linearGradient68626);fill-opacity:1;stroke:none;stroke-width:4;stroke-linecap:round;stroke-linejoin:round;stroke-miterlimit:86.3;stroke-dasharray:none;stroke-opacity:1"
       d="m 609.59997,880.53329 -16.93333,-8.46667 -33.86667,126.99999 16.93333,-4e-5 z"
       id="path68623-0"
       sodipodi:nodetypes="ccccc" /><path
       style="fill:url(#linearGradient68626-2);fill-opacity:1;stroke:none;stroke-width:4;stroke-linecap:round;stroke-linejoin:round;stroke-miterlimit:86.3;stroke-dasharray:none;stroke-opacity:1"
       d="m 414.86664,880.53329 16.93333,-8.46667 33.86667,126.99999 -16.93333,-4e-5 z"
       id="path68623-0-5"
       sodipodi:nodetypes="ccccc" /></g><metadata
     id="metadata4"><rdf:RDF><cc:Work
         rdf:about=""><dc:title>Icon for the Heimdall component of the Vanopticon</dc:title><dc:date>2025-10</dc:date><dc:creator><cc:Agent><dc:title>JEleniel</dc:title></cc:Agent></dc:creator><dc:rights><cc:Agent><dc:title>Copyright © 2025 JEleniel and released under either the MIT license or the Apache 2.0 License.</dc:title></cc:Agent></dc:rights></cc:Work></rdf:RDF></metadata></svg>
